<svg id="Capa_1" enable-background="new 0 0 512 512" height="2.6rem" width="2.6rem" viewBox="0 0 512 512" xmlns="http://www.w3.org/2000/svg" xmlns:xlink="http://www.w3.org/1999/xlink"><linearGradient id="SVGID_1_" gradientUnits="userSpaceOnUse" x1="256" x2="256" y1="496.5" y2="106.5"><stop offset="0" stop-color="#ffc2cc"/><stop offset="1" stop-color="#fff2f4"/></linearGradient><linearGradient id="SVGID_2_" gradientUnits="userSpaceOnUse" x1="256" x2="256" y1="286.5" y2="15.5"><stop offset="0" stop-color="#fd3a84"/><stop offset="1" stop-color="#ffa68d"/></linearGradient><g><g><g><path d="m428.938 358.424-25.563-15.956c1.49-8.472 2.626-17.076 2.626-25.968 0-8.41-1.146-16.523-2.483-24.56l25.421-15.864c6.211-3.882 8.73-11.689 5.918-18.472l-13.242-31.963-30.615-119.141h-270l-30.613 119.141-13.242 31.963c-2.813 6.782-.293 14.59 5.918 18.472l25.421 15.859c-1.34 8.037-2.484 16.153-2.484 24.565 0 8.894 1.133 17.498 2.626 25.97l-25.563 15.954c-6.211 3.882-8.73 11.689-5.918 18.472l13.242 31.963c2.906 6.978 10.393 10.496 17.227 8.877l32.265-7.467c7.013 8.664 14.874 16.478 23.617 23.397l-7.216 31.238c-1.641 7.134 2.109 14.429 8.877 17.227l31.934 13.228c6.76 2.798 14.566.318 18.457-5.903l15.895-25.437c8.036 1.336 16.148 2.483 24.558 2.483 8.417 0 16.536-1.146 24.58-2.485l15.873 25.424c3.895 6.25 11.708 8.712 18.457 5.918l31.934-13.228c6.768-2.798 10.518-10.093 8.877-17.241l-7.218-31.221c8.745-6.919 16.606-14.733 23.621-23.399l32.263 7.467c6.833 1.619 14.321-1.899 17.227-8.877l13.242-31.963c2.811-6.769.292-14.592-5.919-18.473zm-172.938 33.076c-41.367 0-75-33.647-75-75s33.633-75 75-75 75 33.647 75 75-33.633 75-75 75z" fill="#e80505"/></g></g><g><g><path d="m449.74 137.759c-5.654-30.352-29.648-54.36-60-60-6.474-34.819-37.09-62.259-73.74-62.259-24.492 0-46.318 11.821-60 30.044-13.682-18.223-35.508-30.044-60-30.044-36.65 0-67.266 27.44-73.74 62.26-30.352 5.64-54.346 29.648-60 60-34.805 6.474-62.26 37.075-62.26 73.74 0 41.353 34.633 75 76 75h360c41.367 0 76-33.647 76-75 0-36.665-27.455-67.266-62.26-73.741zm-133.74 28.741c-24.814 0-45 20.186-45 45 0 8.291-6.709 15-15 15s-15-6.709-15-15c0-24.814-20.186-45-45-45-8.291 0-15-6.709-15-15s6.709-15 15-15c24.626 0 46.32 12.081 60 30.458 13.68-18.376 35.374-30.458 60-30.458 8.291 0 15 6.709 15 15s-6.709 15-15 15z" fill="#f531bf"/></g></g></g></svg>